<svg width="990" height="1000" viewBox="0 0 990 1000" fill="none" xmlns="http://www.w3.org/2000/svg">
<g clip-path="url(#clip0_25_3)">
<rect width="990" height="1000" rx="130" fill="#171717"/>
<path d="M278.392 100H333.592L376.392 267.6H377.192V100H416.392V380H371.192L318.392 175.6H317.592V380H278.392V100ZM609.095 100H729.095V140H653.095V214H713.495V254H653.095V340H729.095V380H609.095V100ZM316.997 716.8L268.597 580H314.997L344.597 670.4H345.397L375.797 580H417.397L368.997 716.8L419.797 860H373.397L341.397 762.4H340.597L307.797 860H266.197L316.997 716.8ZM658.047 864C636.447 864 619.914 857.867 608.447 845.6C596.98 833.333 591.247 816 591.247 793.6V646.4C591.247 624 596.98 606.667 608.447 594.4C619.914 582.133 636.447 576 658.047 576C679.647 576 696.18 582.133 707.647 594.4C719.114 606.667 724.847 624 724.847 646.4V793.6C724.847 816 719.114 833.333 707.647 845.6C696.18 857.867 679.647 864 658.047 864ZM658.047 824C673.247 824 680.847 814.8 680.847 796.4V643.6C680.847 625.2 673.247 616 658.047 616C642.847 616 635.247 625.2 635.247 643.6V796.4C635.247 814.8 642.847 824 658.047 824Z" fill="#15CD50"/>
</g>
<rect x="12.5" y="12.5" width="965" height="975" rx="117.5" stroke="#00E984" stroke-width="25" stroke-linejoin="round"/>
<defs>
<clipPath id="clip0_25_3">
<rect width="990" height="1000" rx="130" fill="white"/>
</clipPath>
</defs>
</svg>
