<svg width="163" height="268" viewBox="0 0 163 268" fill="none" xmlns="http://www.w3.org/2000/svg">
<path d="M4.93727 -6.67572e-06H24.2573L39.2373 58.66H39.5173V-6.67572e-06H53.2373V98H37.4173L18.9373 26.46H18.6573V98H4.93727V-6.67572e-06ZM120.683 -6.67572e-06H162.683V14H136.083V39.9H157.223V53.9H136.083V84H162.683V98H120.683V-6.67572e-06ZM18.4489 215.88L1.50891 168H17.7489L28.1089 199.64H28.3889L39.0289 168H53.5889L36.6489 215.88L54.4289 266H38.1889L26.9889 231.84H26.7089L15.2289 266H0.668906L18.4489 215.88ZM137.816 267.4C130.256 267.4 124.47 265.253 120.456 260.96C116.443 256.667 114.436 250.6 114.436 242.76V191.24C114.436 183.4 116.443 177.333 120.456 173.04C124.47 168.747 130.256 166.6 137.816 166.6C145.376 166.6 151.163 168.747 155.176 173.04C159.19 177.333 161.196 183.4 161.196 191.24V242.76C161.196 250.6 159.19 256.667 155.176 260.96C151.163 265.253 145.376 267.4 137.816 267.4ZM137.816 253.4C143.136 253.4 145.796 250.18 145.796 243.74V190.26C145.796 183.82 143.136 180.6 137.816 180.6C132.496 180.6 129.836 183.82 129.836 190.26V243.74C129.836 250.18 132.496 253.4 137.816 253.4Z" fill="#15CD50"/>
</svg>
